<svg xmlns="http://www.w3.org/2000/svg" version="1.1" xmlns:xlink="http://www.w3.org/1999/xlink" width="1000" height="1000"><style>
    #light-icon {
      display: inline;
    }
    #dark-icon {
      display: none;
    }

    @media (prefers-color-scheme: dark) {
      #light-icon {
        display: none;
      }
      #dark-icon {
        display: inline;
      }
    }
  </style><g id="light-icon"><svg xmlns="http://www.w3.org/2000/svg" version="1.1" xmlns:xlink="http://www.w3.org/1999/xlink" width="1000" height="1000"><g clip-path="url(#SvgjsClipPath1396)"><rect width="1000" height="1000" fill="#ffffff"></rect><g transform="matrix(1.953125,0,0,1.953125,0,0)"><svg xmlns="http://www.w3.org/2000/svg" width="512" height="512" viewBox="0 0 100 100" fill="none"><path d="M20 25V75H55M40 75V25L55 45L70 25V75" stroke="#000000" stroke-width="2" stroke-linecap="round" stroke-linejoin="round"></path></svg></g></g><defs><clipPath id="SvgjsClipPath1396"><rect width="1000" height="1000" x="0" y="0" rx="500" ry="500"></rect></clipPath></defs></svg></g><g id="dark-icon"><svg xmlns="http://www.w3.org/2000/svg" version="1.1" xmlns:xlink="http://www.w3.org/1999/xlink" width="1000" height="1000"><g clip-path="url(#SvgjsClipPath1397)"><rect width="1000" height="1000" fill="#ffffff"></rect><g transform="matrix(1.953125,0,0,1.953125,0,0)"><svg xmlns="http://www.w3.org/2000/svg" width="512" height="512" viewBox="0 0 100 100" fill="none"><path d="M20 25V75H55M40 75V25L55 45L70 25V75" stroke="#000000" stroke-width="2" stroke-linecap="round" stroke-linejoin="round"></path></svg></g></g><defs><clipPath id="SvgjsClipPath1397"><rect width="1000" height="1000" x="0" y="0" rx="500" ry="500"></rect></clipPath></defs></svg></g></svg>